# xmcd
#
# Track frame offsets: 
#        150
#        16170
#        35305
#        59012
#        78275
#        96175
#        117140
#        132605
#        150160
#        172370
#
# Disc length: 2544 seconds
#
# Revision: 0
# Processed by: cddbd v1.5.2PL0 Copyright (c) Steve Scherf et al.
# Submitted via: ExactAudioCopy v0.99pb4
#
DISCID=7b09ee0a
DTITLE=Various Artist - ´Ú´Ú¬X±¡
DYEAR=1989
DGENRE=
TTITLE0=Longly As The Night Is Long
TTITLE1=Hiding from The Eyes of Love
TTITLE2=12th of Never
TTITLE3=Warm Ways
TTITLE4=She Must Be Beautiful
TTITLE5=Please Dont Say Goodnight
TTITLE6=Castles in The Air
TTITLE7=So Bad
TTITLE8=Looking Through The Eyes of Love
TTITLE9=The Power of Love
EXTD=
EXTT0=
EXTT1=
EXTT2=
EXTT3=
EXTT4=
EXTT5=
EXTT6=
EXTT7=
EXTT8=
EXTT9=
PLAYORDER=
